<svg width="537" height="221" viewBox="0 0 537 221" fill="none" xmlns="http://www.w3.org/2000/svg">
<path d="M149.783 205.113L154.608 188.15H156.946L155.593 194.745L150.401 212.459H148.081L149.783 205.113ZM144.792 188.15L148.631 204.779L149.783 212.459H147.48L141.586 188.15H144.792ZM163.19 204.762L166.946 188.15H170.169L164.292 212.459H161.988L163.19 204.762ZM157.296 188.15L161.988 205.113L163.691 212.459H161.37L156.361 194.745L154.992 188.15H157.296ZM180.236 212.793C178.978 212.793 177.837 212.581 176.813 212.158C175.8 211.724 174.927 211.117 174.192 210.338C173.469 209.559 172.912 208.635 172.523 207.567C172.133 206.498 171.938 205.33 171.938 204.061V203.36C171.938 201.89 172.155 200.583 172.589 199.436C173.023 198.279 173.613 197.299 174.359 196.498C175.105 195.696 175.951 195.09 176.897 194.678C177.843 194.266 178.822 194.06 179.835 194.06C181.126 194.06 182.239 194.283 183.174 194.728C184.12 195.173 184.894 195.797 185.495 196.598C186.096 197.388 186.541 198.323 186.831 199.403C187.12 200.471 187.265 201.64 187.265 202.909V204.295H173.775V201.774H184.176V201.54C184.131 200.738 183.964 199.959 183.675 199.202C183.397 198.446 182.952 197.822 182.339 197.333C181.727 196.843 180.893 196.598 179.835 196.598C179.134 196.598 178.488 196.748 177.898 197.049C177.309 197.338 176.802 197.772 176.379 198.351C175.956 198.93 175.628 199.637 175.394 200.471C175.16 201.306 175.044 202.269 175.044 203.36V204.061C175.044 204.918 175.16 205.725 175.394 206.482C175.639 207.227 175.99 207.884 176.446 208.452C176.913 209.019 177.476 209.465 178.132 209.787C178.8 210.11 179.557 210.272 180.403 210.272C181.494 210.272 182.417 210.049 183.174 209.604C183.931 209.158 184.593 208.563 185.161 207.817L187.031 209.303C186.641 209.893 186.146 210.455 185.545 210.989C184.944 211.524 184.204 211.958 183.324 212.292C182.456 212.626 181.427 212.793 180.236 212.793ZM190.854 186.815H193.959V208.953L193.692 212.459H190.854V186.815ZM206.164 203.276V203.627C206.164 204.94 206.008 206.159 205.696 207.283C205.385 208.396 204.928 209.364 204.327 210.188C203.726 211.012 202.992 211.652 202.123 212.108C201.255 212.564 200.259 212.793 199.135 212.793C197.989 212.793 196.981 212.598 196.113 212.208C195.256 211.807 194.533 211.234 193.943 210.489C193.353 209.743 192.88 208.841 192.524 207.784C192.179 206.727 191.939 205.536 191.806 204.211V202.675C191.939 201.339 192.179 200.143 192.524 199.086C192.88 198.028 193.353 197.127 193.943 196.381C194.533 195.624 195.256 195.051 196.113 194.661C196.97 194.261 197.966 194.06 199.102 194.06C200.237 194.06 201.244 194.283 202.123 194.728C203.003 195.162 203.737 195.785 204.327 196.598C204.928 197.411 205.385 198.384 205.696 199.52C206.008 200.644 206.164 201.896 206.164 203.276ZM203.058 203.627V203.276C203.058 202.375 202.975 201.529 202.808 200.738C202.641 199.937 202.374 199.236 202.007 198.635C201.639 198.023 201.155 197.544 200.554 197.199C199.953 196.843 199.213 196.665 198.334 196.665C197.555 196.665 196.876 196.798 196.297 197.065C195.729 197.333 195.245 197.694 194.844 198.151C194.444 198.596 194.115 199.108 193.859 199.687C193.614 200.254 193.431 200.844 193.308 201.456V205.48C193.486 206.259 193.776 207.01 194.176 207.734C194.588 208.446 195.134 209.031 195.813 209.487C196.503 209.943 197.354 210.171 198.367 210.171C199.202 210.171 199.914 210.004 200.504 209.67C201.105 209.325 201.589 208.852 201.957 208.251C202.335 207.65 202.613 206.955 202.791 206.164C202.969 205.374 203.058 204.528 203.058 203.627ZM223.043 198.969L226.682 196.381C227.384 195.902 227.923 195.424 228.302 194.945C228.691 194.455 228.886 193.788 228.886 192.942C228.886 192.285 228.63 191.69 228.118 191.155C227.606 190.61 226.883 190.337 225.948 190.337C225.302 190.337 224.757 190.487 224.312 190.788C223.866 191.089 223.533 191.489 223.31 191.99C223.087 192.48 222.976 193.02 222.976 193.61C222.976 194.11 223.098 194.628 223.343 195.162C223.588 195.696 223.928 196.253 224.362 196.832C224.796 197.411 225.291 198.023 225.848 198.668L237.351 212.459H233.644L224.211 201.173C223.377 200.193 222.631 199.297 221.974 198.485C221.318 197.661 220.8 196.865 220.422 196.097C220.054 195.329 219.871 194.533 219.871 193.71C219.871 192.441 220.121 191.372 220.622 190.504C221.134 189.625 221.846 188.957 222.759 188.501C223.672 188.044 224.74 187.816 225.964 187.816C227.155 187.816 228.179 188.056 229.036 188.534C229.905 189.002 230.572 189.625 231.04 190.404C231.507 191.172 231.741 192.018 231.741 192.942C231.741 193.721 231.602 194.422 231.324 195.045C231.045 195.658 230.656 196.22 230.155 196.732C229.665 197.244 229.092 197.744 228.435 198.234L223.61 201.824C222.809 202.414 222.225 202.976 221.857 203.51C221.49 204.044 221.251 204.517 221.14 204.929C221.039 205.341 220.989 205.669 220.989 205.914C220.989 206.704 221.162 207.428 221.507 208.084C221.852 208.741 222.375 209.27 223.076 209.67C223.789 210.06 224.679 210.255 225.747 210.255C226.682 210.255 227.59 210.043 228.469 209.62C229.359 209.186 230.155 208.574 230.856 207.784C231.557 206.983 232.114 206.031 232.526 204.929C232.949 203.816 233.16 202.586 233.16 201.239H235.932C235.932 202.341 235.826 203.382 235.614 204.361C235.403 205.341 235.075 206.254 234.629 207.099C234.195 207.934 233.639 208.697 232.96 209.387C232.86 209.487 232.782 209.604 232.726 209.737C232.67 209.871 232.593 209.988 232.492 210.088C231.658 210.989 230.628 211.668 229.404 212.125C228.191 212.57 226.972 212.793 225.747 212.793C224.134 212.793 222.737 212.498 221.557 211.908C220.388 211.318 219.487 210.505 218.852 209.47C218.218 208.435 217.901 207.25 217.901 205.914C217.901 204.89 218.118 203.988 218.552 203.209C218.997 202.43 219.604 201.701 220.372 201.022C221.151 200.343 222.041 199.659 223.043 198.969ZM257.769 190.304L249.722 212.459H246.433L255.699 188.15H257.819L257.769 190.304ZM264.514 212.459L256.45 190.304L256.4 188.15H258.52L267.82 212.459H264.514ZM264.097 203.46V206.098H250.44V203.46H264.097ZM273.697 197.867V219.404H270.591V194.394H273.429L273.697 197.867ZM285.868 203.276V203.627C285.868 204.94 285.712 206.159 285.4 207.283C285.088 208.396 284.632 209.364 284.031 210.188C283.441 211.012 282.712 211.652 281.844 212.108C280.976 212.564 279.98 212.793 278.855 212.793C277.709 212.793 276.696 212.603 275.817 212.225C274.938 211.846 274.192 211.296 273.58 210.572C272.968 209.849 272.478 208.98 272.111 207.968C271.754 206.955 271.509 205.814 271.376 204.545V202.675C271.509 201.339 271.76 200.143 272.127 199.086C272.495 198.028 272.979 197.127 273.58 196.381C274.192 195.624 274.932 195.051 275.8 194.661C276.668 194.261 277.67 194.06 278.805 194.06C279.941 194.06 280.948 194.283 281.827 194.728C282.707 195.162 283.447 195.785 284.048 196.598C284.649 197.411 285.1 198.384 285.4 199.52C285.712 200.644 285.868 201.896 285.868 203.276ZM282.762 203.627V203.276C282.762 202.375 282.668 201.529 282.478 200.738C282.289 199.937 281.994 199.236 281.593 198.635C281.204 198.023 280.703 197.544 280.091 197.199C279.479 196.843 278.75 196.665 277.904 196.665C277.125 196.665 276.446 196.798 275.867 197.065C275.299 197.333 274.815 197.694 274.414 198.151C274.014 198.596 273.685 199.108 273.429 199.687C273.185 200.254 273.001 200.844 272.879 201.456V205.78C273.101 206.56 273.413 207.294 273.813 207.984C274.214 208.663 274.748 209.214 275.416 209.637C276.084 210.049 276.924 210.255 277.937 210.255C278.772 210.255 279.49 210.082 280.091 209.737C280.703 209.381 281.204 208.897 281.593 208.285C281.994 207.673 282.289 206.971 282.478 206.181C282.668 205.38 282.762 204.528 282.762 203.627ZM292.896 197.867V219.404H289.791V194.394H292.629L292.896 197.867ZM305.067 203.276V203.627C305.067 204.94 304.911 206.159 304.6 207.283C304.288 208.396 303.832 209.364 303.231 210.188C302.641 211.012 301.912 211.652 301.044 212.108C300.175 212.564 299.179 212.793 298.055 212.793C296.909 212.793 295.896 212.603 295.017 212.225C294.137 211.846 293.392 211.296 292.779 210.572C292.167 209.849 291.678 208.98 291.31 207.968C290.954 206.955 290.709 205.814 290.576 204.545V202.675C290.709 201.339 290.96 200.143 291.327 199.086C291.694 198.028 292.178 197.127 292.779 196.381C293.392 195.624 294.132 195.051 295 194.661C295.868 194.261 296.87 194.06 298.005 194.06C299.14 194.06 300.148 194.283 301.027 194.728C301.906 195.162 302.646 195.785 303.247 196.598C303.848 197.411 304.299 198.384 304.6 199.52C304.911 200.644 305.067 201.896 305.067 203.276ZM301.962 203.627V203.276C301.962 202.375 301.867 201.529 301.678 200.738C301.489 199.937 301.194 199.236 300.793 198.635C300.404 198.023 299.903 197.544 299.291 197.199C298.678 196.843 297.949 196.665 297.104 196.665C296.324 196.665 295.645 196.798 295.067 197.065C294.499 197.333 294.015 197.694 293.614 198.151C293.213 198.596 292.885 199.108 292.629 199.687C292.384 200.254 292.201 200.844 292.078 201.456V205.78C292.301 206.56 292.612 207.294 293.013 207.984C293.414 208.663 293.948 209.214 294.616 209.637C295.284 210.049 296.124 210.255 297.137 210.255C297.972 210.255 298.69 210.082 299.291 209.737C299.903 209.381 300.404 208.897 300.793 208.285C301.194 207.673 301.489 206.971 301.678 206.181C301.867 205.38 301.962 204.528 301.962 203.627ZM318.457 188.15V212.459H315.285V188.15H318.457ZM326.27 188.15V190.788H307.488V188.15H326.27ZM335.236 212.793C333.978 212.793 332.837 212.581 331.813 212.158C330.8 211.724 329.927 211.117 329.192 210.338C328.469 209.559 327.912 208.635 327.522 207.567C327.133 206.498 326.938 205.33 326.938 204.061V203.36C326.938 201.89 327.155 200.583 327.589 199.436C328.023 198.279 328.613 197.299 329.359 196.498C330.105 195.696 330.951 195.09 331.897 194.678C332.843 194.266 333.822 194.06 334.835 194.06C336.126 194.06 337.239 194.283 338.174 194.728C339.12 195.173 339.894 195.797 340.495 196.598C341.096 197.388 341.541 198.323 341.83 199.403C342.12 200.471 342.265 201.64 342.265 202.909V204.295H328.775V201.774H339.176V201.54C339.131 200.738 338.964 199.959 338.675 199.202C338.397 198.446 337.952 197.822 337.339 197.333C336.727 196.843 335.892 196.598 334.835 196.598C334.134 196.598 333.488 196.748 332.898 197.049C332.309 197.338 331.802 197.772 331.379 198.351C330.956 198.93 330.628 199.637 330.394 200.471C330.16 201.306 330.043 202.269 330.043 203.36V204.061C330.043 204.918 330.16 205.725 330.394 206.482C330.639 207.227 330.99 207.884 331.446 208.452C331.913 209.019 332.475 209.465 333.132 209.787C333.8 210.11 334.557 210.272 335.403 210.272C336.493 210.272 337.417 210.049 338.174 209.604C338.931 209.158 339.593 208.563 340.161 207.817L342.031 209.303C341.641 209.893 341.146 210.455 340.545 210.989C339.944 211.524 339.204 211.958 338.324 212.292C337.456 212.626 336.427 212.793 335.236 212.793ZM353.1 210.255C353.834 210.255 354.513 210.105 355.137 209.804C355.76 209.504 356.272 209.092 356.673 208.569C357.073 208.034 357.301 207.428 357.357 206.749H360.296C360.24 207.817 359.878 208.813 359.21 209.737C358.554 210.65 357.691 211.39 356.623 211.958C355.554 212.514 354.38 212.793 353.1 212.793C351.742 212.793 350.557 212.553 349.544 212.075C348.542 211.596 347.707 210.939 347.039 210.105C346.383 209.27 345.887 208.313 345.553 207.233C345.231 206.142 345.069 204.99 345.069 203.777V203.076C345.069 201.863 345.231 200.716 345.553 199.637C345.887 198.546 346.383 197.583 347.039 196.748C347.707 195.913 348.542 195.257 349.544 194.778C350.557 194.3 351.742 194.06 353.1 194.06C354.513 194.06 355.749 194.35 356.806 194.928C357.864 195.496 358.693 196.275 359.294 197.266C359.906 198.245 360.24 199.358 360.296 200.605H357.357C357.301 199.859 357.09 199.186 356.723 198.585C356.367 197.984 355.877 197.505 355.254 197.149C354.641 196.782 353.923 196.598 353.1 196.598C352.154 196.598 351.358 196.787 350.712 197.166C350.078 197.533 349.572 198.034 349.193 198.668C348.826 199.292 348.559 199.987 348.392 200.755C348.236 201.512 348.158 202.286 348.158 203.076V203.777C348.158 204.567 348.236 205.346 348.392 206.114C348.548 206.882 348.809 207.578 349.176 208.201C349.555 208.825 350.061 209.325 350.696 209.704C351.341 210.071 352.143 210.255 353.1 210.255ZM366.857 186.815V212.459H363.768V186.815H366.857ZM366.122 202.742L364.837 202.692C364.848 201.456 365.031 200.316 365.388 199.269C365.744 198.212 366.245 197.294 366.89 196.515C367.536 195.735 368.304 195.134 369.194 194.711C370.096 194.277 371.092 194.06 372.183 194.06C373.073 194.06 373.874 194.183 374.587 194.428C375.299 194.661 375.906 195.04 376.407 195.563C376.919 196.086 377.308 196.765 377.575 197.6C377.842 198.423 377.976 199.431 377.976 200.622V212.459H374.871V200.588C374.871 199.642 374.731 198.885 374.453 198.318C374.175 197.739 373.769 197.321 373.234 197.065C372.7 196.798 372.044 196.665 371.264 196.665C370.496 196.665 369.795 196.826 369.161 197.149C368.537 197.472 367.998 197.917 367.541 198.485C367.096 199.052 366.746 199.703 366.49 200.438C366.245 201.161 366.122 201.929 366.122 202.742ZM385.689 198.251V212.459H382.601V194.394H385.522L385.689 198.251ZM384.955 202.742L383.669 202.692C383.68 201.456 383.864 200.316 384.22 199.269C384.576 198.212 385.077 197.294 385.723 196.515C386.368 195.735 387.136 195.134 388.027 194.711C388.928 194.277 389.924 194.06 391.015 194.06C391.905 194.06 392.707 194.183 393.419 194.428C394.131 194.661 394.738 195.04 395.239 195.563C395.751 196.086 396.141 196.765 396.408 197.6C396.675 198.423 396.808 199.431 396.808 200.622V212.459H393.703V200.588C393.703 199.642 393.564 198.885 393.286 198.318C393.007 197.739 392.601 197.321 392.067 197.065C391.533 196.798 390.876 196.665 390.097 196.665C389.329 196.665 388.628 196.826 387.993 197.149C387.37 197.472 386.83 197.917 386.374 198.485C385.929 199.052 385.578 199.703 385.322 200.438C385.077 201.161 384.955 201.929 384.955 202.742ZM400.682 203.627V203.243C400.682 201.941 400.871 200.733 401.249 199.62C401.628 198.496 402.173 197.522 402.885 196.698C403.598 195.863 404.46 195.218 405.473 194.762C406.486 194.294 407.621 194.06 408.879 194.06C410.148 194.06 411.289 194.294 412.302 194.762C413.326 195.218 414.194 195.863 414.906 196.698C415.63 197.522 416.181 198.496 416.559 199.62C416.937 200.733 417.127 201.941 417.127 203.243V203.627C417.127 204.929 416.937 206.137 416.559 207.25C416.181 208.363 415.63 209.337 414.906 210.171C414.194 210.995 413.331 211.641 412.318 212.108C411.317 212.564 410.181 212.793 408.912 212.793C407.644 212.793 406.503 212.564 405.49 212.108C404.477 211.641 403.609 210.995 402.885 210.171C402.173 209.337 401.628 208.363 401.249 207.25C400.871 206.137 400.682 204.929 400.682 203.627ZM403.77 203.243V203.627C403.77 204.528 403.876 205.38 404.088 206.181C404.299 206.971 404.616 207.673 405.039 208.285C405.473 208.897 406.013 209.381 406.659 209.737C407.304 210.082 408.055 210.255 408.912 210.255C409.758 210.255 410.499 210.082 411.133 209.737C411.779 209.381 412.313 208.897 412.736 208.285C413.159 207.673 413.476 206.971 413.687 206.181C413.91 205.38 414.021 204.528 414.021 203.627V203.243C414.021 202.352 413.91 201.512 413.687 200.722C413.476 199.92 413.153 199.214 412.719 198.601C412.296 197.978 411.762 197.488 411.116 197.132C410.482 196.776 409.736 196.598 408.879 196.598C408.033 196.598 407.287 196.776 406.642 197.132C406.007 197.488 405.473 197.978 405.039 198.601C404.616 199.214 404.299 199.92 404.088 200.722C403.876 201.512 403.77 202.352 403.77 203.243ZM424.356 186.815V212.459H421.25V186.815H424.356ZM428.496 203.627V203.243C428.496 201.941 428.685 200.733 429.064 199.62C429.442 198.496 429.988 197.522 430.7 196.698C431.412 195.863 432.275 195.218 433.288 194.762C434.301 194.294 435.436 194.06 436.694 194.06C437.962 194.06 439.103 194.294 440.116 194.762C441.14 195.218 442.008 195.863 442.721 196.698C443.444 197.522 443.995 198.496 444.373 199.62C444.752 200.733 444.941 201.941 444.941 203.243V203.627C444.941 204.929 444.752 206.137 444.373 207.25C443.995 208.363 443.444 209.337 442.721 210.171C442.008 210.995 441.146 211.641 440.133 212.108C439.131 212.564 437.996 212.793 436.727 212.793C435.458 212.793 434.317 212.564 433.304 212.108C432.292 211.641 431.423 210.995 430.7 210.171C429.988 209.337 429.442 208.363 429.064 207.25C428.685 206.137 428.496 204.929 428.496 203.627ZM431.585 203.243V203.627C431.585 204.528 431.691 205.38 431.902 206.181C432.113 206.971 432.431 207.673 432.854 208.285C433.288 208.897 433.828 209.381 434.473 209.737C435.119 210.082 435.87 210.255 436.727 210.255C437.573 210.255 438.313 210.082 438.947 209.737C439.593 209.381 440.127 208.897 440.55 208.285C440.973 207.673 441.29 206.971 441.502 206.181C441.724 205.38 441.836 204.528 441.836 203.627V203.243C441.836 202.352 441.724 201.512 441.502 200.722C441.29 199.92 440.968 199.214 440.534 198.601C440.111 197.978 439.576 197.488 438.931 197.132C438.296 196.776 437.551 196.598 436.694 196.598C435.848 196.598 435.102 196.776 434.456 197.132C433.822 197.488 433.288 197.978 432.854 198.601C432.431 199.214 432.113 199.92 431.902 200.722C431.691 201.512 431.585 202.352 431.585 203.243ZM460.518 194.394H463.323V212.075C463.323 213.666 463 215.024 462.354 216.148C461.709 217.272 460.807 218.124 459.65 218.703C458.503 219.293 457.179 219.588 455.676 219.588C455.053 219.588 454.318 219.487 453.472 219.287C452.638 219.098 451.814 218.769 451.002 218.302C450.2 217.846 449.527 217.228 448.981 216.449L450.601 214.612C451.358 215.525 452.148 216.159 452.972 216.516C453.806 216.872 454.63 217.05 455.443 217.05C456.422 217.05 457.268 216.866 457.98 216.499C458.693 216.132 459.243 215.586 459.633 214.863C460.034 214.15 460.234 213.271 460.234 212.225V198.368L460.518 194.394ZM448.08 203.627V203.276C448.08 201.896 448.241 200.644 448.564 199.52C448.898 198.384 449.371 197.411 449.983 196.598C450.606 195.785 451.358 195.162 452.237 194.728C453.116 194.283 454.107 194.06 455.209 194.06C456.344 194.06 457.335 194.261 458.181 194.661C459.038 195.051 459.761 195.624 460.351 196.381C460.952 197.127 461.425 198.028 461.77 199.086C462.115 200.143 462.354 201.339 462.488 202.675V204.211C462.366 205.536 462.126 206.727 461.77 207.784C461.425 208.841 460.952 209.743 460.351 210.489C459.761 211.234 459.038 211.807 458.181 212.208C457.324 212.598 456.322 212.793 455.175 212.793C454.096 212.793 453.116 212.564 452.237 212.108C451.369 211.652 450.623 211.012 450 210.188C449.377 209.364 448.898 208.396 448.564 207.283C448.241 206.159 448.08 204.94 448.08 203.627ZM451.168 203.276V203.627C451.168 204.528 451.258 205.374 451.436 206.164C451.625 206.955 451.909 207.65 452.287 208.251C452.677 208.852 453.172 209.325 453.773 209.67C454.374 210.004 455.092 210.171 455.927 210.171C456.951 210.171 457.797 209.954 458.464 209.52C459.132 209.086 459.661 208.513 460.05 207.801C460.451 207.088 460.763 206.315 460.985 205.48V201.456C460.863 200.844 460.674 200.254 460.418 199.687C460.173 199.108 459.85 198.596 459.449 198.151C459.06 197.694 458.576 197.333 457.997 197.065C457.418 196.798 456.739 196.665 455.96 196.665C455.114 196.665 454.385 196.843 453.773 197.199C453.172 197.544 452.677 198.023 452.287 198.635C451.909 199.236 451.625 199.937 451.436 200.738C451.258 201.529 451.168 202.375 451.168 203.276ZM473.09 210.589L478.115 194.394H481.421L474.175 215.247C474.008 215.692 473.785 216.171 473.507 216.683C473.24 217.206 472.895 217.701 472.472 218.168C472.049 218.636 471.537 219.014 470.936 219.304C470.346 219.604 469.639 219.754 468.815 219.754C468.571 219.754 468.259 219.721 467.881 219.654C467.502 219.588 467.235 219.532 467.079 219.487L467.062 216.983C467.152 216.994 467.291 217.005 467.48 217.016C467.68 217.039 467.819 217.05 467.897 217.05C468.598 217.05 469.194 216.955 469.684 216.766C470.173 216.588 470.585 216.282 470.919 215.848C471.264 215.425 471.559 214.84 471.804 214.095L473.09 210.589ZM469.4 194.394L474.091 208.418L474.893 211.674L472.672 212.809L466.027 194.394H469.4Z" fill="black"/>
<path d="M83.0168 46.7473C72.4097 61.5294 51.0873 94.9242 51.0873 94.9242L0 94.9242C0 94.9242 26.8425 53.6528 40.1555 34.8784C43.5108 30.2387 46.5414 25.5451 50.4379 21.0133C54.8755 15.7263 59.8544 10.5471 66.4568 5.85351C69.1595 3.74778 72.9308 2.03551 77.3886 0.890148C79.6792 0.3533 82.1639 0.0526771 84.6934 0.00632345C87.2229 -0.0400302 89.7451 0.168841 92.1086 0.6204C97.6287 1.69939 102.175 3.74947 105.746 6.0693C112.132 10.2774 116.029 15.2947 118.951 20.312C129.187 35.6817 134.056 51.8129 133.346 68.0034C133.13 75.8261 131.29 87.4252 128.584 94.9782L83.1251 94.9782C83.1251 94.9782 85.8309 89.0437 96.6545 72.697C98.2781 70.2153 100.226 67.7336 101.309 65.1441C102.909 61.3112 103.707 57.4059 103.69 53.491C103.365 49.9842 102.932 46.3696 100.335 43.0787C99.2522 41.8918 97.9534 40.597 95.3557 40.1115C93.191 39.6799 91.0263 40.2733 89.511 41.0286C86.3721 42.5392 84.6404 44.6972 83.0168 46.7473Z" fill="black"/>
<path d="M82.9324 167.903C93.5395 153.121 114.862 119.727 114.862 119.727H165.949C165.949 119.727 139.107 160.998 125.794 179.772C122.438 184.412 119.408 189.106 115.511 193.637C111.074 198.924 106.095 204.104 99.4924 208.797C96.7897 210.903 93.0184 212.615 88.5606 213.761C86.27 214.297 83.7853 214.598 81.2558 214.644C78.7263 214.691 76.2041 214.482 73.8406 214.03C68.3205 212.951 63.7747 210.901 60.2029 208.581C53.817 204.373 49.9205 199.356 46.9981 194.339C36.7626 178.969 31.8935 162.838 32.6027 146.647C32.8192 138.825 34.6592 127.226 37.3651 119.673H82.8241C82.8241 119.673 80.1183 125.607 69.2947 141.954C67.6711 144.435 65.7229 146.917 64.6405 149.507C63.04 153.34 62.2421 157.245 62.2594 161.16C62.5841 164.667 63.017 168.281 65.6147 171.572C66.697 172.759 67.9958 174.054 70.5935 174.539C72.7582 174.971 74.9229 174.377 76.4382 173.622C79.5771 172.112 81.3088 169.954 82.9324 167.903Z" fill="black"/>
<path d="M227.065 122.372C227.065 120.48 226.768 118.81 226.175 117.363C225.618 115.879 224.616 114.543 223.169 113.356C221.76 112.169 219.793 111.037 217.27 109.962C214.785 108.886 211.631 107.791 207.81 106.678C203.803 105.491 200.185 104.174 196.958 102.727C193.73 101.243 190.966 99.5548 188.666 97.6626C186.365 95.7705 184.603 93.6001 183.379 91.1514C182.154 88.7028 181.542 85.9016 181.542 82.7481C181.542 79.5945 182.192 76.6821 183.49 74.0108C184.789 71.3396 186.644 69.0208 189.055 67.0544C191.504 65.051 194.416 63.4927 197.792 62.3797C201.169 61.2667 204.934 60.7102 209.09 60.7102C215.174 60.7102 220.331 61.8788 224.561 64.2162C228.827 66.5164 232.074 69.5402 234.3 73.2874C236.526 76.9974 237.639 80.9672 237.639 85.1967H226.954C226.954 82.1545 226.304 79.4646 225.006 77.1273C223.707 74.7528 221.741 72.8978 219.107 71.5622C216.473 70.1894 213.134 69.5031 209.09 69.5031C205.268 69.5031 202.115 70.0781 199.629 71.2283C197.143 72.3784 195.288 73.9366 194.064 75.903C192.877 77.8693 192.283 80.1139 192.283 82.6368C192.283 84.3434 192.635 85.9016 193.34 87.3115C194.082 88.6842 195.214 89.9642 196.735 91.1514C198.293 92.3386 200.26 93.4331 202.634 94.4348C205.046 95.4366 207.921 96.4012 211.26 97.3287C215.861 98.6272 219.83 100.074 223.169 101.67C226.509 103.265 229.254 105.064 231.406 107.068C233.595 109.034 235.209 111.279 236.248 113.801C237.323 116.287 237.861 119.107 237.861 122.26C237.861 125.562 237.194 128.549 235.858 131.22C234.522 133.892 232.612 136.173 230.126 138.065C227.64 139.958 224.654 141.423 221.166 142.462C217.716 143.464 213.857 143.964 209.591 143.964C205.843 143.964 202.152 143.445 198.516 142.406C194.917 141.367 191.634 139.809 188.666 137.732C185.735 135.654 183.379 133.094 181.598 130.052C179.854 126.972 178.982 123.411 178.982 119.367H189.667C189.667 122.149 190.205 124.542 191.281 126.546C192.357 128.512 193.823 130.144 195.678 131.443C197.57 132.741 199.703 133.706 202.078 134.337C204.489 134.93 206.994 135.227 209.591 135.227C213.338 135.227 216.51 134.708 219.107 133.669C221.704 132.63 223.67 131.146 225.006 129.217C226.379 127.288 227.065 125.006 227.065 122.372ZM265.242 132.166L280.713 82.6368H287.502L286.167 92.487L270.417 142.851H263.795L265.242 132.166ZM254.835 82.6368L268.024 132.723L268.97 142.851H262.014L244.54 82.6368H254.835ZM302.306 132.333L314.883 82.6368H325.123L307.648 142.851H300.747L302.306 132.333ZM289.005 82.6368L304.142 131.332L305.867 142.851H299.3L283.106 92.3757L281.77 82.6368H289.005ZM332.969 113.412V112.132C332.969 107.791 333.6 103.766 334.862 100.056C336.123 96.3084 337.941 93.0621 340.315 90.3166C342.69 87.5341 345.565 85.3822 348.941 83.8611C352.318 82.3029 356.102 81.5237 360.294 81.5237C364.524 81.5237 368.327 82.3029 371.703 83.8611C375.116 85.3822 378.01 87.5341 380.384 90.3166C382.796 93.0621 384.632 96.3084 385.894 100.056C387.155 103.766 387.786 107.791 387.786 112.132V113.412C387.786 117.753 387.155 121.778 385.894 125.488C384.632 129.198 382.796 132.445 380.384 135.227C378.01 137.973 375.135 140.125 371.758 141.683C368.419 143.204 364.635 143.964 360.406 143.964C356.176 143.964 352.373 143.204 348.997 141.683C345.621 140.125 342.727 137.973 340.315 135.227C337.941 132.445 336.123 129.198 334.862 125.488C333.6 121.778 332.969 117.753 332.969 113.412ZM343.265 112.132V113.412C343.265 116.417 343.617 119.255 344.322 121.927C345.027 124.561 346.085 126.898 347.494 128.939C348.941 130.979 350.741 132.593 352.893 133.78C355.044 134.93 357.549 135.505 360.406 135.505C363.225 135.505 365.692 134.93 367.807 133.78C369.959 132.593 371.74 130.979 373.15 128.939C374.559 126.898 375.617 124.561 376.322 121.927C377.064 119.255 377.435 116.417 377.435 113.412V112.132C377.435 109.164 377.064 106.363 376.322 103.729C375.617 101.057 374.541 98.7014 373.094 96.6609C371.684 94.5832 369.903 92.9508 367.751 91.7636C365.637 90.5763 363.151 89.9827 360.294 89.9827C357.475 89.9827 354.989 90.5763 352.837 91.7636C350.722 92.9508 348.941 94.5832 347.494 96.6609C346.085 98.7014 345.027 101.057 344.322 103.729C343.617 106.363 343.265 109.164 343.265 112.132ZM397.97 113.412V112.132C397.97 107.791 398.601 103.766 399.862 100.056C401.124 96.3084 402.942 93.0621 405.316 90.3166C407.691 87.5341 410.566 85.3822 413.942 83.8611C417.318 82.3029 421.102 81.5237 425.295 81.5237C429.524 81.5237 433.327 82.3029 436.703 83.8611C440.117 85.3822 443.011 87.5341 445.385 90.3166C447.797 93.0621 449.633 96.3084 450.894 100.056C452.156 103.766 452.787 107.791 452.787 112.132V113.412C452.787 117.753 452.156 121.778 450.894 125.488C449.633 129.198 447.797 132.445 445.385 135.227C443.011 137.973 440.135 140.125 436.759 141.683C433.42 143.204 429.636 143.964 425.406 143.964C421.177 143.964 417.374 143.204 413.998 141.683C410.621 140.125 407.728 137.973 405.316 135.227C402.942 132.445 401.124 129.198 399.862 125.488C398.601 121.778 397.97 117.753 397.97 113.412ZM408.266 112.132V113.412C408.266 116.417 408.618 119.255 409.323 121.927C410.028 124.561 411.085 126.898 412.495 128.939C413.942 130.979 415.741 132.593 417.893 133.78C420.045 134.93 422.549 135.505 425.406 135.505C428.226 135.505 430.693 134.93 432.808 133.78C434.96 132.593 436.74 130.979 438.15 128.939C439.56 126.898 440.618 124.561 441.322 121.927C442.064 119.255 442.435 116.417 442.435 113.412V112.132C442.435 109.164 442.064 106.363 441.322 103.729C440.618 101.057 439.542 98.7014 438.095 96.6609C436.685 94.5832 434.904 92.9508 432.752 91.7636C430.637 90.5763 428.152 89.9827 425.295 89.9827C422.475 89.9827 419.989 90.5763 417.838 91.7636C415.723 92.9508 413.942 94.5832 412.495 96.6609C411.085 98.7014 410.028 101.057 409.323 103.729C408.618 106.363 408.266 109.164 408.266 112.132ZM502.539 128.939V82.6368H512.89V142.851H503.04L502.539 128.939ZM504.487 116.25L508.772 116.139C508.772 120.146 508.345 123.856 507.492 127.269C506.676 130.645 505.34 133.576 503.485 136.062C501.63 138.548 499.2 140.496 496.195 141.905C493.189 143.278 489.535 143.964 485.231 143.964C482.3 143.964 479.611 143.538 477.162 142.684C474.75 141.831 472.673 140.514 470.929 138.733C469.185 136.952 467.831 134.634 466.866 131.777C465.939 128.92 465.475 125.488 465.475 121.481V82.6368H475.771V121.593C475.771 124.301 476.067 126.546 476.661 128.326C477.292 130.07 478.127 131.461 479.165 132.5C480.241 133.502 481.428 134.207 482.727 134.615C484.063 135.023 485.435 135.227 486.845 135.227C491.223 135.227 494.692 134.392 497.252 132.723C499.812 131.016 501.648 128.735 502.761 125.878C503.912 122.984 504.487 119.775 504.487 116.25Z" fill="black"/>
</svg>
